<svg viewBox="0 0 100 100"><defs><linearGradient id="prefix__a" x1="0" x2="1" y1="1" y2="0"><stop stop-color="rgba(33.482, 223.267, 216.838, 1)" offset="0%"/><stop stop-color="rgba(228.726, 0, 255, 1)" offset="100%"/></linearGradient></defs><path fill="url(#prefix__a)" d="M12.3-22c4.3 5.6 8.8 8 12.1 11.8 3.2 3.9 5.1 9.3 4.4 14.4-.7 5-3.9 9.8-7.3 15.3S14.6 31.3 9.3 33.8C4 36.3-2.9 35.1-9.5 32.9c-6.6-2.1-12.8-5.2-15.4-10.2-2.6-5-1.6-12-4.1-19.5-2.6-7.4-8.7-15.3-7.5-20.6 1.3-5.3 9.8-8 17.1-12.3C-12.1-34-6-39.9-1-38.3 4-36.7 8-27.7 12.3-22z" transform="translate(50 50)" style="transition:all .3s ease 0s"/></svg>